<?xml version="1.0" standalone="no"?>
<!DOCTYPE svg PUBLIC "-//W3C//DTD SVG 20010904//EN"
 "http://www.w3.org/TR/2001/REC-SVG-20010904/DTD/svg10.dtd">
<svg version="1.0" xmlns="http://www.w3.org/2000/svg"
 width="1080.000000pt" height="1080.000000pt" viewBox="0 0 1080.000000 1080.000000"
 preserveAspectRatio="xMidYMid meet">

<g transform="translate(0.000000,1080.000000) scale(0.100000,-0.100000)"
fill="#000000" stroke="none">
<path d="M0 5400 l0 -5400 5400 0 5400 0 0 5400 0 5400 -5400 0 -5400 0 0
-5400z m5460 2904 c26 -11 252 -202 653 -555 l612 -538 5 117 5 117 378 3 377
2 0 -454 0 -455 48 -44 c26 -25 223 -198 437 -387 367 -321 425 -379 425 -422
0 -38 -33 -98 -65 -118 -31 -19 -49 -20 -374 -20 l-341 0 0 -1535 0 -1535
-2225 0 -2225 0 0 1535 0 1535 -342 0 c-326 0 -345 1 -376 20 -53 32 -76 108
-50 165 6 14 205 200 442 414 609 549 2423 2129 2471 2152 49 23 92 24 145 3z"/>
<path d="M6085 5837 c-99 -33 -158 -88 -196 -183 -24 -59 -24 -61 -27 -539 -3
-512 0 -560 44 -647 55 -109 148 -159 294 -159 147 0 239 50 294 159 35 69 46
138 46 277 l0 125 -79 0 -79 0 -4 -142 c-2 -121 -6 -149 -24 -182 -33 -65 -64
-81 -149 -81 -87 0 -118 17 -152 85 -23 44 -23 46 -23 530 0 484 0 486 23 530
57 115 240 120 299 8 19 -36 23 -62 26 -165 l4 -123 80 0 80 0 -4 133 c-6 154
-25 218 -88 290 -59 66 -115 89 -230 93 -61 3 -109 -1 -135 -9z"/>
<path d="M3380 5080 l0 -762 228 4 c266 5 298 13 373 88 70 71 89 139 89 329
0 230 -35 315 -154 371 l-39 18 34 17 c86 44 124 117 135 262 12 169 -26 312
-99 367 -68 52 -105 59 -344 64 l-223 4 0 -762z m427 580 c58 -35 68 -68 68
-220 0 -117 -3 -140 -20 -169 -32 -54 -79 -72 -200 -79 l-105 -5 0 247 0 246
113 0 c93 0 117 -3 144 -20z m14 -646 c54 -31 78 -90 85 -214 7 -123 -6 -218
-36 -260 -36 -51 -73 -63 -202 -68 l-118 -4 0 287 0 287 118 -4 c94 -3 125 -8
153 -24z"/>
<path d="M4230 5080 l0 -760 300 0 300 0 0 75 0 75 -215 0 -215 0 -2 683 -3
682 -82 3 -83 3 0 -761z"/>
<path d="M5204 5827 c-2 -7 -69 -348 -147 -757 l-143 -745 74 -3 c41 -2 76 -1
79 1 2 2 15 62 28 133 14 71 27 139 30 152 5 22 7 22 195 22 171 0 189 -2 194
-17 2 -10 12 -58 21 -108 9 -49 21 -111 27 -137 l10 -48 84 0 c82 0 84 1 79
23 -7 29 -285 1485 -285 1492 0 3 -54 5 -120 5 -89 0 -122 -3 -126 -13z m200
-628 l83 -424 -165 -3 c-91 -1 -166 -1 -168 1 -2 2 32 191 76 421 44 230 80
423 80 429 0 42 21 -54 94 -424z"/>
<path d="M6697 5833 c-4 -3 -7 -345 -7 -760 l0 -753 85 0 85 0 0 252 0 251 43
73 c23 41 44 74 47 74 4 0 78 -146 165 -324 l160 -325 87 0 87 -1 -43 93 c-24
50 -112 233 -195 406 -83 173 -151 319 -151 326 0 7 83 162 185 345 102 183
185 337 185 342 0 5 -37 8 -82 6 l-83 -3 -200 -364 -200 -364 -3 367 -2 366
-78 0 c-43 0 -82 -3 -85 -7z"/>
<path d="M4418 4104 c-52 -28 -58 -55 -58 -266 0 -206 4 -226 51 -260 33 -25
110 -26 145 -3 46 30 54 68 54 266 0 148 -3 187 -17 216 -27 57 -114 81 -175
47z m117 -68 c14 -21 16 -54 13 -211 -3 -171 -5 -188 -22 -201 -28 -20 -63
-17 -86 6 -19 19 -20 33 -20 207 0 209 4 223 66 223 24 0 38 -7 49 -24z"/>
<path d="M6298 4104 c-37 -20 -58 -63 -58 -119 0 -61 9 -76 101 -171 73 -75
79 -85 79 -123 0 -103 -110 -110 -127 -7 -5 30 -10 36 -29 36 -21 0 -24 -5
-24 -40 0 -48 22 -95 52 -111 11 -6 42 -11 68 -11 57 0 85 13 105 52 19 37 19
123 0 160 -8 15 -42 52 -76 81 -69 60 -89 93 -89 142 0 44 27 69 71 65 34 -3
44 -15 54 -60 4 -22 11 -28 30 -28 22 0 25 5 25 33 0 41 -33 95 -66 107 -36
14 -84 12 -116 -6z"/>
<path d="M3410 3835 l0 -275 30 0 30 0 0 125 0 125 65 0 65 0 0 -125 0 -125
35 0 35 0 0 275 0 275 -35 0 -35 0 0 -125 0 -125 -65 0 -65 0 0 125 0 125 -30
0 -30 0 0 -275z"/>
<path d="M5302 3871 c3 -225 4 -241 24 -268 30 -40 89 -58 139 -41 21 7 48 26
59 41 20 27 21 43 24 268 l3 239 -30 0 -31 0 0 -230 c0 -217 -1 -231 -20 -250
-20 -20 -55 -26 -77 -12 -27 17 -33 69 -33 278 l0 214 -31 0 -30 0 3 -239z"/>
<path d="M7170 3835 l0 -275 115 0 115 0 0 30 0 30 -85 0 -85 0 0 95 0 95 70
0 70 0 0 30 0 30 -70 0 -70 0 0 95 0 95 85 0 c84 0 85 0 85 25 l0 25 -115 0
-115 0 0 -275z"/>
</g>
</svg>
